<?xml version="1.0" standalone="no"?>
<!DOCTYPE svg PUBLIC "-//W3C//DTD SVG 20010904//EN"
 "http://www.w3.org/TR/2001/REC-SVG-20010904/DTD/svg10.dtd">
<svg version="1.0" xmlns="http://www.w3.org/2000/svg"
 width="90.000000pt" height="90.000000pt" viewBox="0 0 90.000000 90.000000"
 preserveAspectRatio="xMidYMid meet">
<metadata>
Created by potrace 1.14, written by Peter Selinger 2001-2017
</metadata>
<g transform="translate(0.000000,90.000000) scale(0.100000,-0.100000)"
fill="#000000" stroke="none">
<path d="M370 894 c-90 -17 -195 -78 -258 -149 -116 -132 -143 -335 -66 -493
53 -109 189 -218 299 -239 22 -5 76 -8 121 -7 320 2 531 351 387 642 -41 82
-130 167 -219 208 -61 29 -88 36 -156 39 -46 2 -94 1 -108 -1z m39 -26 c11
-10 13 -10 7 0 -13 22 7 13 44 -20 l35 -33 -29 32 -28 32 44 -3 c41 -2 50 -8
101 -62 44 -47 52 -61 40 -67 -9 -6 -22 -2 -36 9 -21 18 -21 17 0 -6 21 -23
25 -23 55 -11 87 35 115 31 114 -14 -1 -18 -7 -20 -48 -17 -27 2 -48 1 -48 -2
0 -7 80 -49 99 -52 8 -2 25 -13 38 -26 20 -20 24 -37 29 -118 3 -52 13 -115
21 -141 14 -41 14 -48 -1 -77 -9 -18 -18 -32 -19 -32 -2 0 -3 16 -4 35 -1 31
1 34 16 23 9 -7 6 -1 -6 13 -27 30 -30 47 -5 28 9 -7 7 -2 -5 12 -17 18 -23
38 -23 72 0 25 -4 49 -10 52 -15 9 -12 27 3 19 6 -4 -3 9 -20 27 -35 37 -44
60 -15 38 15 -11 15 -11 4 1 -7 8 -17 15 -22 15 -4 0 -24 21 -44 46 -19 26
-46 49 -60 53 -14 3 -38 11 -53 18 -15 6 -33 12 -40 14 -15 3 -169 154 -156
154 5 0 15 -6 22 -12z m186 -223 c11 -7 25 -13 30 -14 14 -3 45 -32 45 -42 0
-4 13 -27 28 -51 16 -24 37 -59 48 -78 10 -19 30 -47 43 -62 14 -16 20 -28 14
-28 -5 0 -18 9 -28 20 -10 11 -22 17 -27 14 -5 -4 -24 7 -41 22 -30 28 -30 27
2 -9 43 -46 30 -49 -19 -5 -32 30 -32 29 5 -10 21 -23 34 -42 27 -42 -8 0 -11
-9 -8 -25 3 -14 1 -25 -4 -25 -5 0 -6 -7 -3 -17 4 -11 3 -14 -6 -9 -7 5 -10
14 -7 21 3 8 -2 19 -10 26 -8 7 -13 18 -10 25 3 7 -2 18 -10 24 -11 10 -14 10
-14 1 0 -8 -5 -7 -15 3 -9 8 -21 14 -28 12 -7 -1 -9 -1 -4 1 4 3 5 9 2 14 -4
5 1 6 9 3 9 -3 16 -1 16 5 0 6 -6 11 -12 11 -7 0 -5 5 5 11 9 5 21 8 26 4 15
-9 41 24 34 43 -6 15 -3 14 18 -3 20 -17 20 -15 -3 11 -29 31 -37 51 -15 37 6
-4 -3 12 -21 35 -36 44 -60 62 -78 55 -5 -2 -21 9 -35 23 l-24 26 25 -7 c14
-4 34 -13 45 -20z m-527 -22 c-2 -12 3 -17 13 -15 16 2 73 -61 64 -70 -3 -2 9
-18 27 -34 17 -16 28 -23 24 -16 -4 6 -3 12 3 12 11 0 9 -56 -2 -67 -4 -3 4
-20 16 -37 12 -17 22 -33 22 -36 0 -3 10 -20 23 -37 13 -18 21 -33 19 -33 -3
0 1 -23 8 -52 8 -28 11 -56 8 -62 -3 -6 -3 -8 2 -4 7 7 59 -91 52 -98 -2 -2
-19 12 -37 31 -32 33 -31 50 0 23 8 -7 -5 8 -30 35 -24 26 -46 47 -49 47 -3 0
0 -5 7 -12 7 -7 12 -20 12 -31 0 -11 4 -15 12 -11 6 4 8 3 5 -3 -3 -5 14 -29
38 -53 25 -24 45 -40 45 -35 0 5 9 -1 20 -13 25 -26 26 -36 3 -27 -18 7 -40
13 -56 14 -9 1 -88 124 -114 177 -11 22 -31 59 -46 84 -32 55 -77 172 -77 201
0 17 3 19 14 10 8 -7 17 -23 20 -36 9 -35 26 -31 26 5 0 22 -12 42 -45 77 -31
32 -43 52 -39 65 7 23 16 23 12 1z"/>
</g>
</svg>
